<svg width="36" height="35" fill="none" xmlns="http://www.w3.org/2000/svg"><path fill-rule="evenodd" clip-rule="evenodd" d="M0 3.75A3.75 3.75 0 0 1 3.75 0h28.5A3.75 3.75 0 0 1 36 3.75v27.004a3.75 3.75 0 0 1-3.75 3.75H3.75A3.75 3.75 0 0 1 0 30.754V3.75zM3.75 1.5A2.25 2.25 0 0 0 1.5 3.75v6.978h33V3.75a2.25 2.25 0 0 0-2.25-2.25H3.75zM34.5 12.228H11.25v20.776h21a2.25 2.25 0 0 0 2.25-2.25V12.228zm-24.75 0H1.5v18.526a2.25 2.25 0 0 0 2.25 2.25h6V12.228z" fill="url(#paint0_linear)"/><defs><linearGradient id="paint0_linear" x2="1" gradientUnits="userSpaceOnUse" gradientTransform="matrix(36 34.50384 -36 34.50384 18.75 -16.533)"><stop stop-color="#706EF5"/><stop offset="1" stop-color="#8054F1"/></linearGradient></defs></svg>