<svg width="48" height="36" fill="none" xmlns="http://www.w3.org/2000/svg"><path d="M48 6.11c.006.54-.445.985-1.007.99-.563.007-1.025-.427-1.03-.969L45.93 3.38l-13.728 13.21c-1.99 1.915-5.216 1.915-7.206 0L9.388 1.57l1.44-1.387 15.61 15.02c1.193 1.15 3.129 1.15 4.322 0L44.49 1.993l-2.86-.03c-.563-.007-1.014-.45-1.007-.992.006-.542.467-.976 1.03-.97l5.281.057c.554.006 1.002.437 1.008.97L48 6.109z" fill="url(#paint0_linear)"/><path d="M38.465 29.923c.004-.541-.448-.984-1.011-.988-.563-.004-1.023.431-1.027.973l-.022 2.723-13.72-13.202c-1.99-1.915-5.215-1.915-7.205 0L0 34.326l1.441 1.387 15.48-14.897c1.194-1.15 3.13-1.15 4.323 0l13.72 13.202-2.83.02c-.562.005-1.015.447-1.01.989.004.541.463.977 1.026.973l5.263-.04c.557-.004 1.007-.437 1.011-.972l.04-5.065z" fill="url(#paint1_linear)"/><defs><linearGradient id="paint0_linear" x2="1" gradientUnits="userSpaceOnUse" gradientTransform="matrix(27.333 16.5703 -32.8989 10.2527 24.705 15.508)"><stop stop-color="#706EF5"/><stop offset="1" stop-color="#7E59F3"/></linearGradient><linearGradient id="paint1_linear" x2="1" gradientUnits="userSpaceOnUse" gradientTransform="matrix(27.333 16.5703 -32.8989 10.2527 24.705 15.508)"><stop stop-color="#706EF5"/><stop offset="1" stop-color="#7E59F3"/></linearGradient></defs></svg>