<svg width="48" height="48" fill="none" xmlns="http://www.w3.org/2000/svg"><path d="M33.07.293a1 1 0 0 0-1.414 1.414l2.475 2.475H10.41C4.66 4.182 0 8.842 0 14.59 0 20.339 4.66 25 10.409 25h26.136l1.046-.002a8.409 8.409 0 1 1 0 16.818H13.87l2.475-2.475a1 1 0 1 0-1.415-1.414l-4.181 4.182a1 1 0 0 0 0 1.414l4.181 4.182a1 1 0 0 0 1.415-1.414l-2.475-2.475H37.59c5.749 0 10.409-4.66 10.409-10.41 0-5.748-4.66-10.408-10.409-10.408H11.455L10.409 23a8.409 8.409 0 1 1 0-16.818H34.13l-2.475 2.474a1 1 0 1 0 1.415 1.414l4.181-4.181a1 1 0 0 0 0-1.414L33.071.293z" fill="url(#paint0_linear)"/><defs><linearGradient id="paint0_linear" x2="1" gradientUnits="userSpaceOnUse" gradientTransform="scale(58.6941 58.6911) rotate(45.69 .535 .394)"><stop stop-color="#706EF5"/><stop offset="1" stop-color="#7F56F2"/></linearGradient></defs></svg>